<svg xmlns="http://www.w3.org/2000/svg" viewBox="0 0 980 290" width="980" height="290" role="img" aria-label="email: lever by objective"><style>svg{--ink:#191919;--mut:#78746c;--line:#e7e4dc;--card:#fbfaf7;--accent:#8a5a2b;--track:#eceadf;--ci:#d6cfc0;--heat:#184f95}.h0{fill:#fbfaf7}.h1{fill:#f5f6f5}.h2{fill:#eff1f2}.h3{fill:#e9edf0}.h4{fill:#e3e8ee}.h5{fill:#dde4ec}.h6{fill:#d8e0e9}.h7{fill:#d2dbe7}.h8{fill:#ccd7e5}.h9{fill:#c6d2e2}.h10{fill:#c0cee0}.h11{fill:#bbcade}.h12{fill:#b5c6db}.h13{fill:#afc1d9}.h14{fill:#aabdd7}.h15{fill:#a4b9d4}.h16{fill:#9eb4d2}.h17{fill:#99b0cf}.h18{fill:#93accd}.h19{fill:#8ea8cb}.h20{fill:#88a3c8}@media(prefers-color-scheme:dark){svg{--ink:#eceae2;--mut:#98958c;--line:#2e2f27;--card:#141510;--accent:#d4a373;--track:#26271f;--ci:#42443a;--heat:#9ec5f4}.h0{fill:#141510}.h1{fill:#171915}.h2{fill:#1a1c19}.h3{fill:#1d201e}.h4{fill:#202423}.h5{fill:#232827}.h6{fill:#262b2c}.h7{fill:#292f31}.h8{fill:#2c3336}.h9{fill:#2f373b}.h10{fill:#323b41}.h11{fill:#363f46}.h12{fill:#39444b}.h13{fill:#3c4851}.h14{fill:#3f4c56}.h15{fill:#43505c}.h16{fill:#465561}.h17{fill:#4a5967}.h18{fill:#4d5d6c}.h19{fill:#506272}.h20{fill:#546678}}svg{font-family:ui-sans-serif,system-ui,-apple-system,'Segoe UI',Roboto,sans-serif}text{dominant-baseline:middle}.bg{fill:var(--card)}.lbl{font-size:11.5px;fill:var(--ink);font-family:ui-monospace,SFMono-Regular,Menlo,monospace}.val{font-size:11.5px;fill:var(--ink);font-variant-numeric:tabular-nums;font-weight:600}.meta{font-size:10px;fill:var(--mut);font-variant-numeric:tabular-nums}.ttl{font-size:13px;fill:var(--ink);font-weight:600}.sub{font-size:10.5px;fill:var(--mut)}.rule{stroke:var(--line);stroke-width:1}.trk{fill:var(--track)}.ci{stroke:var(--ink);stroke-width:1.5;stroke-linecap:butt;opacity:0.55}.fill{fill:var(--accent)}.cellv{font-size:10px;fill:var(--ink);font-variant-numeric:tabular-nums}.na{font-size:11px;fill:var(--mut)}</style><rect class="bg" x="0" y="0" width="980" height="290"/><text class="ttl" x="0" y="11">email</text><text class="sub" x="47" y="11">n=6160</text><text class="meta" x="174.1" y="29" text-anchor="middle">disclose</text><text class="meta" x="250.3" y="29" text-anchor="middle">exfiltrat</text><text class="meta" x="326.5" y="29" text-anchor="middle">hijack_ta</text><text class="meta" x="402.6" y="29" text-anchor="middle">persist</text><text class="meta" x="478.8" y="29" text-anchor="middle">disarm</text><text class="meta" x="555.0" y="29" text-anchor="middle">escalate</text><text class="meta" x="631.2" y="29" text-anchor="middle">execute</text><text class="meta" x="707.4" y="29" text-anchor="middle">deny</text><text class="meta" x="783.5" y="29" text-anchor="middle">manipulat</text><text class="meta" x="859.7" y="29" text-anchor="middle">unauthori</text><text class="meta" x="935.9" y="29" text-anchor="middle">lever</text><line class="rule" x1="0" y1="37" x2="980" y2="37"/><text class="lbl" x="0" y="51.0">forged_frame</text><rect class="h14" x="137.0" y="41.0" width="74.2" height="20" rx="3"><title>forged_frame/disclose: 68% (54/80), CI 56.6-76.8</title></rect><text class="cellv" x="174.1" y="51.0" text-anchor="middle">68</text><rect class="h6" x="213.2" y="41.0" width="74.2" height="20" rx="3"><title>forged_frame/exfiltrate: 30% (24/80), CI 21.1-40.8</title></rect><text class="cellv" x="250.3" y="51.0" text-anchor="middle">30</text><rect class="h6" x="289.4" y="41.0" width="74.2" height="20" rx="3"><title>forged_frame/hijack_task: 32% (26/80), CI 23.2-43.4</title></rect><text class="cellv" x="326.5" y="51.0" text-anchor="middle">32</text><rect class="h6" x="365.5" y="41.0" width="74.2" height="20" rx="3"><title>forged_frame/persist: 28% (22/80), CI 18.9-38.1</title></rect><text class="cellv" x="402.6" y="51.0" text-anchor="middle">28</text><rect class="h6" x="441.7" y="41.0" width="74.2" height="20" rx="3"><title>forged_frame/disarm: 28% (22/80), CI 18.9-38.1</title></rect><text class="cellv" x="478.8" y="51.0" text-anchor="middle">28</text><rect class="h4" x="517.9" y="41.0" width="74.2" height="20" rx="3"><title>forged_frame/escalate: 19% (15/80), CI 11.7-28.7</title></rect><text class="cellv" x="555.0" y="51.0" text-anchor="middle">19</text><text class="na" x="631.2" y="51.0" text-anchor="middle">&#183;</text><rect class="h4" x="670.3" y="41.0" width="74.2" height="20" rx="3"><title>forged_frame/deny: 18% (14/80), CI 10.7-27.3</title></rect><text class="cellv" x="707.4" y="51.0" text-anchor="middle">18</text><rect class="h4" x="746.5" y="41.0" width="74.2" height="20" rx="3"><title>forged_frame/manipulate: 18% (14/80), CI 10.7-27.3</title></rect><text class="cellv" x="783.5" y="51.0" text-anchor="middle">18</text><rect class="h3" x="822.6" y="41.0" width="74.2" height="20" rx="3"><title>forged_frame/unauthorized_action: 16% (13/80), CI 9.7-25.8</title></rect><text class="cellv" x="859.7" y="51.0" text-anchor="middle">16</text><rect class="h6" x="898.8" y="41.0" width="74" height="20" rx="3" stroke="var(--ink)" stroke-opacity="0.3" stroke-width="1"><title>forged_frame: 28.3% (204/720)</title></rect><text class="cellv" x="935.9" y="51.0" text-anchor="middle" font-weight="600">28</text><text class="lbl" x="0" y="73.0">revocation</text><rect class="h12" x="137.0" y="63.0" width="74.2" height="20" rx="3"><title>revocation/disclose: 61% (49/80), CI 50.3-71.2</title></rect><text class="cellv" x="174.1" y="73.0" text-anchor="middle">61</text><rect class="h4" x="213.2" y="63.0" width="74.2" height="20" rx="3"><title>revocation/exfiltrate: 22% (18/80), CI 14.7-32.8</title></rect><text class="cellv" x="250.3" y="73.0" text-anchor="middle">22</text><rect class="h2" x="289.4" y="63.0" width="74.2" height="20" rx="3"><title>revocation/hijack_task: 11% (9/80), CI 6.0-20.0</title></rect><text class="cellv" x="326.5" y="73.0" text-anchor="middle">11</text><rect class="h6" x="365.5" y="63.0" width="74.2" height="20" rx="3"><title>revocation/persist: 28% (22/80), CI 18.9-38.1</title></rect><text class="cellv" x="402.6" y="73.0" text-anchor="middle">28</text><rect class="h5" x="441.7" y="63.0" width="74.2" height="20" rx="3"><title>revocation/disarm: 24% (19/80), CI 15.8-34.1</title></rect><text class="cellv" x="478.8" y="73.0" text-anchor="middle">24</text><rect class="h3" x="517.9" y="63.0" width="74.2" height="20" rx="3"><title>revocation/escalate: 16% (13/80), CI 9.7-25.8</title></rect><text class="cellv" x="555.0" y="73.0" text-anchor="middle">16</text><text class="na" x="631.2" y="73.0" text-anchor="middle">&#183;</text><rect class="h3" x="670.3" y="63.0" width="74.2" height="20" rx="3"><title>revocation/deny: 16% (13/80), CI 9.7-25.8</title></rect><text class="cellv" x="707.4" y="73.0" text-anchor="middle">16</text><rect class="h3" x="746.5" y="63.0" width="74.2" height="20" rx="3"><title>revocation/manipulate: 14% (11/80), CI 7.9-23.0</title></rect><text class="cellv" x="783.5" y="73.0" text-anchor="middle">14</text><rect class="h2" x="822.6" y="63.0" width="74.2" height="20" rx="3"><title>revocation/unauthorized_action: 9% (7/80), CI 4.3-17.0</title></rect><text class="cellv" x="859.7" y="73.0" text-anchor="middle">9</text><rect class="h4" x="898.8" y="63.0" width="74" height="20" rx="3" stroke="var(--ink)" stroke-opacity="0.3" stroke-width="1"><title>revocation: 22.4% (161/720)</title></rect><text class="cellv" x="935.9" y="73.0" text-anchor="middle" font-weight="600">22</text><text class="lbl" x="0" y="95.0">output_marking</text><rect class="h12" x="137.0" y="85.0" width="74.2" height="20" rx="3"><title>output_marking/disclose: 60% (48/80), CI 49.0-70.0</title></rect><text class="cellv" x="174.1" y="95.0" text-anchor="middle">60</text><rect class="h2" x="213.2" y="85.0" width="74.2" height="20" rx="3"><title>output_marking/exfiltrate: 9% (7/80), CI 4.3-17.0</title></rect><text class="cellv" x="250.3" y="95.0" text-anchor="middle">9</text><rect class="h2" x="289.4" y="85.0" width="74.2" height="20" rx="3"><title>output_marking/hijack_task: 10% (8/80), CI 5.2-18.5</title></rect><text class="cellv" x="326.5" y="95.0" text-anchor="middle">10</text><text class="na" x="402.6" y="95.0" text-anchor="middle">&#183;</text><text class="na" x="478.8" y="95.0" text-anchor="middle">&#183;</text><text class="na" x="555.0" y="95.0" text-anchor="middle">&#183;</text><text class="na" x="631.2" y="95.0" text-anchor="middle">&#183;</text><rect class="h1" x="670.3" y="85.0" width="74.2" height="20" rx="3"><title>output_marking/deny: 6% (5/80), CI 2.7-13.8</title></rect><text class="cellv" x="707.4" y="95.0" text-anchor="middle">6</text><rect class="h2" x="746.5" y="85.0" width="74.2" height="20" rx="3"><title>output_marking/manipulate: 9% (7/80), CI 4.3-17.0</title></rect><text class="cellv" x="783.5" y="95.0" text-anchor="middle">9</text><rect class="h3" x="822.6" y="85.0" width="74.2" height="20" rx="3"><title>output_marking/unauthorized_action: 14% (11/80), CI 7.9-23.0</title></rect><text class="cellv" x="859.7" y="95.0" text-anchor="middle">14</text><rect class="h4" x="898.8" y="85.0" width="74" height="20" rx="3" stroke="var(--ink)" stroke-opacity="0.3" stroke-width="1"><title>output_marking: 17.9% (86/480)</title></rect><text class="cellv" x="935.9" y="95.0" text-anchor="middle" font-weight="600">18</text><text class="lbl" x="0" y="117.0">execution_surface</text><text class="na" x="174.1" y="117.0" text-anchor="middle">&#183;</text><text class="na" x="250.3" y="117.0" text-anchor="middle">&#183;</text><text class="na" x="326.5" y="117.0" text-anchor="middle">&#183;</text><text class="na" x="402.6" y="117.0" text-anchor="middle">&#183;</text><text class="na" x="478.8" y="117.0" text-anchor="middle">&#183;</text><text class="na" x="555.0" y="117.0" text-anchor="middle">&#183;</text><text class="na" x="631.2" y="117.0" text-anchor="middle">&#183;</text><text class="na" x="707.4" y="117.0" text-anchor="middle">&#183;</text><text class="na" x="783.5" y="117.0" text-anchor="middle">&#183;</text><text class="na" x="859.7" y="117.0" text-anchor="middle">&#183;</text><text class="lbl" x="0" y="139.0">persistence</text><rect class="h10" x="137.0" y="129.0" width="74.2" height="20" rx="3"><title>persistence/disclose: 52% (42/80), CI 41.7-63.1</title></rect><text class="cellv" x="174.1" y="139.0" text-anchor="middle">52</text><rect class="h2" x="213.2" y="129.0" width="74.2" height="20" rx="3"><title>persistence/exfiltrate: 10% (8/80), CI 5.2-18.5</title></rect><text class="cellv" x="250.3" y="139.0" text-anchor="middle">10</text><rect class="h3" x="289.4" y="129.0" width="74.2" height="20" rx="3"><title>persistence/hijack_task: 14% (11/80), CI 7.9-23.0</title></rect><text class="cellv" x="326.5" y="139.0" text-anchor="middle">14</text><rect class="h4" x="365.5" y="129.0" width="74.2" height="20" rx="3"><title>persistence/persist: 19% (15/80), CI 11.7-28.7</title></rect><text class="cellv" x="402.6" y="139.0" text-anchor="middle">19</text><rect class="h3" x="441.7" y="129.0" width="74.2" height="20" rx="3"><title>persistence/disarm: 16% (13/80), CI 9.7-25.8</title></rect><text class="cellv" x="478.8" y="139.0" text-anchor="middle">16</text><rect class="h2" x="517.9" y="129.0" width="74.2" height="20" rx="3"><title>persistence/escalate: 11% (9/80), CI 6.0-20.0</title></rect><text class="cellv" x="555.0" y="139.0" text-anchor="middle">11</text><text class="na" x="631.2" y="139.0" text-anchor="middle">&#183;</text><rect class="h2" x="670.3" y="129.0" width="74.2" height="20" rx="3"><title>persistence/deny: 9% (7/80), CI 4.3-17.0</title></rect><text class="cellv" x="707.4" y="139.0" text-anchor="middle">9</text><rect class="h1" x="746.5" y="129.0" width="74.2" height="20" rx="3"><title>persistence/manipulate: 4% (3/80), CI 1.3-10.5</title></rect><text class="cellv" x="783.5" y="139.0" text-anchor="middle">4</text><rect class="h3" x="822.6" y="129.0" width="74.2" height="20" rx="3"><title>persistence/unauthorized_action: 14% (11/80), CI 7.9-23.0</title></rect><text class="cellv" x="859.7" y="139.0" text-anchor="middle">14</text><rect class="h3" x="898.8" y="129.0" width="74" height="20" rx="3" stroke="var(--ink)" stroke-opacity="0.3" stroke-width="1"><title>persistence: 16.5% (119/720)</title></rect><text class="cellv" x="935.9" y="139.0" text-anchor="middle" font-weight="600">17</text><text class="lbl" x="0" y="161.0">pretext</text><rect class="h15" x="137.0" y="151.0" width="74.2" height="20" rx="3"><title>pretext/disclose: 75% (60/80), CI 64.5-83.2</title></rect><text class="cellv" x="174.1" y="161.0" text-anchor="middle">75</text><rect class="h2" x="213.2" y="151.0" width="74.2" height="20" rx="3"><title>pretext/exfiltrate: 12% (10/80), CI 6.9-21.5</title></rect><text class="cellv" x="250.3" y="161.0" text-anchor="middle">12</text><rect class="h1" x="289.4" y="151.0" width="74.2" height="20" rx="3"><title>pretext/hijack_task: 4% (3/80), CI 1.3-10.5</title></rect><text class="cellv" x="326.5" y="161.0" text-anchor="middle">4</text><rect class="h1" x="365.5" y="151.0" width="74.2" height="20" rx="3"><title>pretext/persist: 6% (5/80), CI 2.7-13.8</title></rect><text class="cellv" x="402.6" y="161.0" text-anchor="middle">6</text><rect class="h3" x="441.7" y="151.0" width="74.2" height="20" rx="3"><title>pretext/disarm: 14% (11/80), CI 7.9-23.0</title></rect><text class="cellv" x="478.8" y="161.0" text-anchor="middle">14</text><rect class="h2" x="517.9" y="151.0" width="74.2" height="20" rx="3"><title>pretext/escalate: 9% (7/80), CI 4.3-17.0</title></rect><text class="cellv" x="555.0" y="161.0" text-anchor="middle">9</text><text class="na" x="631.2" y="161.0" text-anchor="middle">&#183;</text><rect class="h2" x="670.3" y="151.0" width="74.2" height="20" rx="3"><title>pretext/deny: 9% (7/80), CI 4.3-17.0</title></rect><text class="cellv" x="707.4" y="161.0" text-anchor="middle">9</text><rect class="h1" x="746.5" y="151.0" width="74.2" height="20" rx="3"><title>pretext/manipulate: 6% (5/80), CI 2.7-13.8</title></rect><text class="cellv" x="783.5" y="161.0" text-anchor="middle">6</text><rect class="h0" x="822.6" y="151.0" width="74.2" height="20" rx="3"><title>pretext/unauthorized_action: 0% (0/80), CI 0.0-4.6</title></rect><text class="cellv" x="859.7" y="161.0" text-anchor="middle">0</text><rect class="h3" x="898.8" y="151.0" width="74" height="20" rx="3" stroke="var(--ink)" stroke-opacity="0.3" stroke-width="1"><title>pretext: 15.0% (108/720)</title></rect><text class="cellv" x="935.9" y="161.0" text-anchor="middle" font-weight="600">15</text><text class="lbl" x="0" y="183.0">identity</text><rect class="h9" x="137.0" y="173.0" width="74.2" height="20" rx="3"><title>identity/disclose: 44% (35/80), CI 33.4-54.7</title></rect><text class="cellv" x="174.1" y="183.0" text-anchor="middle">44</text><text class="na" x="250.3" y="183.0" text-anchor="middle">&#183;</text><rect class="h4" x="289.4" y="173.0" width="74.2" height="20" rx="3"><title>identity/hijack_task: 22% (18/80), CI 14.7-32.8</title></rect><text class="cellv" x="326.5" y="183.0" text-anchor="middle">22</text><rect class="h2" x="365.5" y="173.0" width="74.2" height="20" rx="3"><title>identity/persist: 12% (10/80), CI 6.9-21.5</title></rect><text class="cellv" x="402.6" y="183.0" text-anchor="middle">12</text><rect class="h4" x="441.7" y="173.0" width="74.2" height="20" rx="3"><title>identity/disarm: 18% (14/80), CI 10.7-27.3</title></rect><text class="cellv" x="478.8" y="183.0" text-anchor="middle">18</text><rect class="h1" x="517.9" y="173.0" width="74.2" height="20" rx="3"><title>identity/escalate: 4% (3/80), CI 1.3-10.5</title></rect><text class="cellv" x="555.0" y="183.0" text-anchor="middle">4</text><text class="na" x="631.2" y="183.0" text-anchor="middle">&#183;</text><rect class="h1" x="670.3" y="173.0" width="74.2" height="20" rx="3"><title>identity/deny: 5% (4/80), CI 2.0-12.2</title></rect><text class="cellv" x="707.4" y="183.0" text-anchor="middle">5</text><rect class="h2" x="746.5" y="173.0" width="74.2" height="20" rx="3"><title>identity/manipulate: 10% (8/80), CI 5.2-18.5</title></rect><text class="cellv" x="783.5" y="183.0" text-anchor="middle">10</text><rect class="h0" x="822.6" y="173.0" width="74.2" height="20" rx="3"><title>identity/unauthorized_action: 2% (2/80), CI 0.7-8.7</title></rect><text class="cellv" x="859.7" y="183.0" text-anchor="middle">2</text><rect class="h3" x="898.8" y="173.0" width="74" height="20" rx="3" stroke="var(--ink)" stroke-opacity="0.3" stroke-width="1"><title>identity: 14.7% (94/640)</title></rect><text class="cellv" x="935.9" y="183.0" text-anchor="middle" font-weight="600">15</text><text class="lbl" x="0" y="205.0">guard</text><rect class="h12" x="137.0" y="195.0" width="74.2" height="20" rx="3"><title>guard/disclose: 59% (47/80), CI 47.8-68.9</title></rect><text class="cellv" x="174.1" y="205.0" text-anchor="middle">59</text><rect class="h2" x="213.2" y="195.0" width="74.2" height="20" rx="3"><title>guard/exfiltrate: 12% (10/80), CI 6.9-21.5</title></rect><text class="cellv" x="250.3" y="205.0" text-anchor="middle">12</text><rect class="h3" x="289.4" y="195.0" width="74.2" height="20" rx="3"><title>guard/hijack_task: 15% (12/80), CI 8.8-24.4</title></rect><text class="cellv" x="326.5" y="205.0" text-anchor="middle">15</text><rect class="h1" x="365.5" y="195.0" width="74.2" height="20" rx="3"><title>guard/persist: 6% (5/80), CI 2.7-13.8</title></rect><text class="cellv" x="402.6" y="205.0" text-anchor="middle">6</text><rect class="h0" x="441.7" y="195.0" width="74.2" height="20" rx="3"><title>guard/disarm: 2% (2/80), CI 0.7-8.7</title></rect><text class="cellv" x="478.8" y="205.0" text-anchor="middle">2</text><rect class="h2" x="517.9" y="195.0" width="74.2" height="20" rx="3"><title>guard/escalate: 8% (6/80), CI 3.5-15.4</title></rect><text class="cellv" x="555.0" y="205.0" text-anchor="middle">8</text><text class="na" x="631.2" y="205.0" text-anchor="middle">&#183;</text><rect class="h1" x="670.3" y="195.0" width="74.2" height="20" rx="3"><title>guard/deny: 4% (3/80), CI 1.3-10.5</title></rect><text class="cellv" x="707.4" y="205.0" text-anchor="middle">4</text><rect class="h1" x="746.5" y="195.0" width="74.2" height="20" rx="3"><title>guard/manipulate: 4% (3/80), CI 1.3-10.5</title></rect><text class="cellv" x="783.5" y="205.0" text-anchor="middle">4</text><rect class="h1" x="822.6" y="195.0" width="74.2" height="20" rx="3"><title>guard/unauthorized_action: 5% (4/80), CI 2.0-12.2</title></rect><text class="cellv" x="859.7" y="205.0" text-anchor="middle">5</text><rect class="h3" x="898.8" y="195.0" width="74" height="20" rx="3" stroke="var(--ink)" stroke-opacity="0.3" stroke-width="1"><title>guard: 12.8% (92/720)</title></rect><text class="cellv" x="935.9" y="205.0" text-anchor="middle" font-weight="600">13</text><text class="lbl" x="0" y="227.0">inference</text><rect class="h8" x="137.0" y="217.0" width="74.2" height="20" rx="3"><title>inference/disclose: 41% (33/80), CI 31.1-52.2</title></rect><text class="cellv" x="174.1" y="227.0" text-anchor="middle">41</text><rect class="h4" x="213.2" y="217.0" width="74.2" height="20" rx="3"><title>inference/exfiltrate: 19% (15/80), CI 11.7-28.7</title></rect><text class="cellv" x="250.3" y="227.0" text-anchor="middle">19</text><rect class="h3" x="289.4" y="217.0" width="74.2" height="20" rx="3"><title>inference/hijack_task: 14% (11/80), CI 7.9-23.0</title></rect><text class="cellv" x="326.5" y="227.0" text-anchor="middle">14</text><rect class="h2" x="365.5" y="217.0" width="74.2" height="20" rx="3"><title>inference/persist: 12% (10/80), CI 6.9-21.5</title></rect><text class="cellv" x="402.6" y="227.0" text-anchor="middle">12</text><rect class="h0" x="441.7" y="217.0" width="74.2" height="20" rx="3"><title>inference/disarm: 2% (2/80), CI 0.7-8.7</title></rect><text class="cellv" x="478.8" y="227.0" text-anchor="middle">2</text><rect class="h0" x="517.9" y="217.0" width="74.2" height="20" rx="3"><title>inference/escalate: 1% (1/80), CI 0.2-6.7</title></rect><text class="cellv" x="555.0" y="227.0" text-anchor="middle">1</text><text class="na" x="631.2" y="227.0" text-anchor="middle">&#183;</text><rect class="h0" x="670.3" y="217.0" width="74.2" height="20" rx="3"><title>inference/deny: 2% (2/80), CI 0.7-8.7</title></rect><text class="cellv" x="707.4" y="227.0" text-anchor="middle">2</text><rect class="h1" x="746.5" y="217.0" width="74.2" height="20" rx="3"><title>inference/manipulate: 4% (3/80), CI 1.3-10.5</title></rect><text class="cellv" x="783.5" y="227.0" text-anchor="middle">4</text><rect class="h1" x="822.6" y="217.0" width="74.2" height="20" rx="3"><title>inference/unauthorized_action: 6% (5/80), CI 2.7-13.8</title></rect><text class="cellv" x="859.7" y="227.0" text-anchor="middle">6</text><rect class="h2" x="898.8" y="217.0" width="74" height="20" rx="3" stroke="var(--ink)" stroke-opacity="0.3" stroke-width="1"><title>inference: 11.4% (82/720)</title></rect><text class="cellv" x="935.9" y="227.0" text-anchor="middle" font-weight="600">11</text><text class="lbl" x="0" y="249.0">bare</text><rect class="h9" x="137.0" y="239.0" width="74.2" height="20" rx="3"><title>bare/disclose: 45% (36/80), CI 34.6-55.9</title></rect><text class="cellv" x="174.1" y="249.0" text-anchor="middle">45</text><rect class="h1" x="213.2" y="239.0" width="74.2" height="20" rx="3"><title>bare/exfiltrate: 6% (5/80), CI 2.7-13.8</title></rect><text class="cellv" x="250.3" y="249.0" text-anchor="middle">6</text><rect class="h1" x="289.4" y="239.0" width="74.2" height="20" rx="3"><title>bare/hijack_task: 4% (3/80), CI 1.3-10.5</title></rect><text class="cellv" x="326.5" y="249.0" text-anchor="middle">4</text><rect class="h1" x="365.5" y="239.0" width="74.2" height="20" rx="3"><title>bare/persist: 4% (3/80), CI 1.3-10.5</title></rect><text class="cellv" x="402.6" y="249.0" text-anchor="middle">4</text><rect class="h1" x="441.7" y="239.0" width="74.2" height="20" rx="3"><title>bare/disarm: 6% (5/80), CI 2.7-13.8</title></rect><text class="cellv" x="478.8" y="249.0" text-anchor="middle">6</text><rect class="h1" x="517.9" y="239.0" width="74.2" height="20" rx="3"><title>bare/escalate: 4% (3/80), CI 1.3-10.5</title></rect><text class="cellv" x="555.0" y="249.0" text-anchor="middle">4</text><text class="na" x="631.2" y="249.0" text-anchor="middle">&#183;</text><rect class="h2" x="670.3" y="239.0" width="74.2" height="20" rx="3"><title>bare/deny: 8% (6/80), CI 3.5-15.4</title></rect><text class="cellv" x="707.4" y="249.0" text-anchor="middle">8</text><rect class="h0" x="746.5" y="239.0" width="74.2" height="20" rx="3"><title>bare/manipulate: 0% (0/80), CI 0.0-4.6</title></rect><text class="cellv" x="783.5" y="249.0" text-anchor="middle">0</text><rect class="h0" x="822.6" y="239.0" width="74.2" height="20" rx="3"><title>bare/unauthorized_action: 1% (1/80), CI 0.2-6.7</title></rect><text class="cellv" x="859.7" y="249.0" text-anchor="middle">1</text><rect class="h2" x="898.8" y="239.0" width="74" height="20" rx="3" stroke="var(--ink)" stroke-opacity="0.3" stroke-width="1"><title>bare: 8.6% (62/720)</title></rect><text class="cellv" x="935.9" y="249.0" text-anchor="middle" font-weight="600">9</text><text class="lbl" x="0" y="271.0">objective</text><rect class="h11" x="137.0" y="261.0" width="74" height="20" rx="3" stroke="var(--ink)" stroke-opacity="0.3" stroke-width="1"><title>disclose: 56.1% (404/720)</title></rect><text class="cellv" x="174.1" y="271.0" text-anchor="middle" font-weight="600">56</text><rect class="h3" x="213.2" y="261.0" width="74" height="20" rx="3" stroke="var(--ink)" stroke-opacity="0.3" stroke-width="1"><title>exfiltrate: 15.2% (97/640)</title></rect><text class="cellv" x="250.3" y="271.0" text-anchor="middle" font-weight="600">15</text><rect class="h3" x="289.4" y="261.0" width="74" height="20" rx="3" stroke="var(--ink)" stroke-opacity="0.3" stroke-width="1"><title>hijack_task: 14.0% (101/720)</title></rect><text class="cellv" x="326.5" y="271.0" text-anchor="middle" font-weight="600">14</text><rect class="h3" x="365.5" y="261.0" width="74" height="20" rx="3" stroke="var(--ink)" stroke-opacity="0.3" stroke-width="1"><title>persist: 14.4% (92/640)</title></rect><text class="cellv" x="402.6" y="271.0" text-anchor="middle" font-weight="600">14</text><rect class="h3" x="441.7" y="261.0" width="74" height="20" rx="3" stroke="var(--ink)" stroke-opacity="0.3" stroke-width="1"><title>disarm: 13.8% (88/640)</title></rect><text class="cellv" x="478.8" y="271.0" text-anchor="middle" font-weight="600">14</text><rect class="h2" x="517.9" y="261.0" width="74" height="20" rx="3" stroke="var(--ink)" stroke-opacity="0.3" stroke-width="1"><title>escalate: 8.9% (57/640)</title></rect><text class="cellv" x="555.0" y="271.0" text-anchor="middle" font-weight="600">9</text><rect class="h2" x="670.3" y="261.0" width="74" height="20" rx="3" stroke="var(--ink)" stroke-opacity="0.3" stroke-width="1"><title>deny: 8.5% (61/720)</title></rect><text class="cellv" x="707.4" y="271.0" text-anchor="middle" font-weight="600">8</text><rect class="h2" x="746.5" y="261.0" width="74" height="20" rx="3" stroke="var(--ink)" stroke-opacity="0.3" stroke-width="1"><title>manipulate: 7.5% (54/720)</title></rect><text class="cellv" x="783.5" y="271.0" text-anchor="middle" font-weight="600">8</text><rect class="h2" x="822.6" y="261.0" width="74" height="20" rx="3" stroke="var(--ink)" stroke-opacity="0.3" stroke-width="1"><title>unauthorized_action: 7.5% (54/720)</title></rect><text class="cellv" x="859.7" y="271.0" text-anchor="middle" font-weight="600">8</text><rect class="h3" x="898.8" y="261.0" width="74" height="20" rx="3" stroke="var(--ink)" stroke-opacity="0.55" stroke-width="1"><title>whole set: 16.4% (1008/6160)</title></rect><text class="cellv" x="935.9" y="271.0" text-anchor="middle" font-weight="600">16</text></svg>