<svg xmlns="http://www.w3.org/2000/svg" viewBox="0 0 980 210" width="980" height="210" role="img" aria-label="recall by group"><style>svg{--ink:#191919;--mut:#78746c;--line:#e7e4dc;--card:#fbfaf7;--accent:#8a5a2b;--track:#eceadf;--ci:#d6cfc0;--heat:#184f95}.h0{fill:#fbfaf7}.h1{fill:#f5f6f5}.h2{fill:#eff1f2}.h3{fill:#e9edf0}.h4{fill:#e3e8ee}.h5{fill:#dde4ec}.h6{fill:#d8e0e9}.h7{fill:#d2dbe7}.h8{fill:#ccd7e5}.h9{fill:#c6d2e2}.h10{fill:#c0cee0}.h11{fill:#bbcade}.h12{fill:#b5c6db}.h13{fill:#afc1d9}.h14{fill:#aabdd7}.h15{fill:#a4b9d4}.h16{fill:#9eb4d2}.h17{fill:#99b0cf}.h18{fill:#93accd}.h19{fill:#8ea8cb}.h20{fill:#88a3c8}@media(prefers-color-scheme:dark){svg{--ink:#eceae2;--mut:#98958c;--line:#2e2f27;--card:#141510;--accent:#d4a373;--track:#26271f;--ci:#42443a;--heat:#9ec5f4}.h0{fill:#141510}.h1{fill:#171915}.h2{fill:#1a1c19}.h3{fill:#1d201e}.h4{fill:#202423}.h5{fill:#232827}.h6{fill:#262b2c}.h7{fill:#292f31}.h8{fill:#2c3336}.h9{fill:#2f373b}.h10{fill:#323b41}.h11{fill:#363f46}.h12{fill:#39444b}.h13{fill:#3c4851}.h14{fill:#3f4c56}.h15{fill:#43505c}.h16{fill:#465561}.h17{fill:#4a5967}.h18{fill:#4d5d6c}.h19{fill:#506272}.h20{fill:#546678}}svg{font-family:ui-sans-serif,system-ui,-apple-system,'Segoe UI',Roboto,sans-serif}text{dominant-baseline:middle}.bg{fill:var(--card)}.lbl{font-size:11.5px;fill:var(--ink);font-family:ui-monospace,SFMono-Regular,Menlo,monospace}.val{font-size:11.5px;fill:var(--ink);font-variant-numeric:tabular-nums;font-weight:600}.meta{font-size:10px;fill:var(--mut);font-variant-numeric:tabular-nums}.ttl{font-size:13px;fill:var(--ink);font-weight:600}.sub{font-size:10.5px;fill:var(--mut)}.rule{stroke:var(--line);stroke-width:1}.trk{fill:var(--track)}.ci{stroke:var(--ink);stroke-width:1.5;stroke-linecap:butt;opacity:0.55}.fill{fill:var(--accent)}.cellv{font-size:10px;fill:var(--ink);font-variant-numeric:tabular-nums}.na{font-size:11px;fill:var(--mut)}</style><rect class="bg" x="0" y="0" width="980" height="210"/><text class="lbl" x="0" y="22.0" opacity="0.45"><title>Bastion Prompt Protection</title>Bastion Prompt Protection</text><text class="val" x="266" y="22.0" text-anchor="end" opacity="0.45">29.9%</text><rect class="trk" x="280" y="16.0" width="614" height="12" rx="6"/><rect class="fill" x="280" y="16.0" width="183.7" height="12" rx="6" opacity="0.45"><title>Bastion Prompt Protection: 29.9% (CI 29.2-30.6), n=16800</title></rect><path class="ci" d="M459.4,17.0 V27.0 M459.4,22.0 H467.9 M467.9,17.0 V27.0" fill="none"/><text class="meta" x="980" y="22.0" text-anchor="end">n=16800</text><text class="lbl" x="0" y="46.0" opacity="0.45"><title>Meta Prompt Guard 2 (86M)</title>Meta Prompt Guard 2 (86M)</text><text class="val" x="266" y="46.0" text-anchor="end" opacity="0.45">20.8%</text><rect class="trk" x="280" y="40.0" width="614" height="12" rx="6"/><rect class="fill" x="280" y="40.0" width="127.5" height="12" rx="6" opacity="0.45"><title>Meta Prompt Guard 2 (86M): 20.8% (CI 20.2-21.4), n=16800</title></rect><path class="ci" d="M403.8,41.0 V51.0 M403.8,46.0 H411.3 M411.3,41.0 V51.0" fill="none"/><text class="meta" x="980" y="46.0" text-anchor="end">n=16800</text><text class="lbl" x="0" y="70.0" opacity="0.45"><title>PIGuard (ACL 2025)</title>PIGuard (ACL 2025)</text><text class="val" x="266" y="70.0" text-anchor="end" opacity="0.45">17.3%</text><rect class="trk" x="280" y="64.0" width="614" height="12" rx="6"/><rect class="fill" x="280" y="64.0" width="106.0" height="12" rx="6" opacity="0.45"><title>PIGuard (ACL 2025): 17.3% (CI 16.7-17.8), n=16800</title></rect><path class="ci" d="M382.5,65.0 V75.0 M382.5,70.0 H389.5 M389.5,65.0 V75.0" fill="none"/><text class="meta" x="980" y="70.0" text-anchor="end">n=16800</text><text class="lbl" x="0" y="94.0" font-weight="600"><title>AI Cordon Picket</title>AI Cordon Picket</text><text class="val" x="266" y="94.0" text-anchor="end">16.4%</text><rect class="trk" x="280" y="88.0" width="614" height="12" rx="6"/><rect class="fill" x="280" y="88.0" width="100.7" height="12" rx="6"><title>AI Cordon Picket: 16.4% (CI 15.8-17.0), n=16800</title></rect><path class="ci" d="M377.3,89.0 V99.0 M377.3,94.0 H384.1 M384.1,89.0 V99.0" fill="none"/><text class="meta" x="980" y="94.0" text-anchor="end">n=16800</text><text class="lbl" x="0" y="118.0" opacity="0.45"><title>Proventra mDeBERTa v3 base</title>Proventra mDeBERTa v3 base</text><text class="val" x="266" y="118.0" text-anchor="end" opacity="0.45">14.9%</text><rect class="trk" x="280" y="112.0" width="614" height="12" rx="6"/><rect class="fill" x="280" y="112.0" width="91.5" height="12" rx="6" opacity="0.45"><title>Proventra mDeBERTa v3 base: 14.9% (CI 14.4-15.5), n=16800</title></rect><path class="ci" d="M368.3,113.0 V123.0 M368.3,118.0 H374.9 M374.9,113.0 V123.0" fill="none"/><text class="meta" x="980" y="118.0" text-anchor="end">n=16800</text><text class="lbl" x="0" y="142.0" opacity="0.45"><title>Wolf Defender (ModernBERT 0.3B)</title>Wolf Defender (ModernBERT 0.3B)</text><text class="val" x="266" y="142.0" text-anchor="end" opacity="0.45">10.0%</text><rect class="trk" x="280" y="136.0" width="614" height="12" rx="6"/><rect class="fill" x="280" y="136.0" width="61.1" height="12" rx="6" opacity="0.45"><title>Wolf Defender (ModernBERT 0.3B): 10.0% (CI 9.5-10.4), n=16800</title></rect><path class="ci" d="M338.4,137.0 V147.0 M338.4,142.0 H344.0 M344.0,137.0 V147.0" fill="none"/><text class="meta" x="980" y="142.0" text-anchor="end">n=16800</text><text class="lbl" x="0" y="166.0" opacity="0.45"><title>ProtectAI DeBERTa v3 base v2</title>ProtectAI DeBERTa v3 base v2</text><text class="val" x="266" y="166.0" text-anchor="end" opacity="0.45">3.4%</text><rect class="trk" x="280" y="160.0" width="614" height="12" rx="6"/><rect class="fill" x="280" y="160.0" width="21.1" height="12" rx="6" opacity="0.45"><title>ProtectAI DeBERTa v3 base v2: 3.4% (CI 3.2-3.7), n=16800</title></rect><path class="ci" d="M299.5,161.0 V171.0 M299.5,166.0 H302.8 M302.8,161.0 V171.0" fill="none"/><text class="meta" x="980" y="166.0" text-anchor="end">n=16800</text><text class="lbl" x="0" y="190.0" opacity="0.45"><title>deepset DeBERTa v3 base</title>deepset DeBERTa v3 base</text><text class="val" x="266" y="190.0" text-anchor="end" opacity="0.45">1.4%</text><rect class="trk" x="280" y="184.0" width="614" height="12" rx="6"/><rect class="fill" x="280" y="184.0" width="8.3" height="12" rx="6" opacity="0.45"><title>deepset DeBERTa v3 base: 1.4% (CI 1.2-1.5), n=16800</title></rect><path class="ci" d="M287.3,185.0 V195.0 M287.3,190.0 H289.4 M289.4,185.0 V195.0" fill="none"/><text class="meta" x="980" y="190.0" text-anchor="end">n=16800</text></svg>